<?xml version="1.0" encoding="utf-8"?>
<svg width="171" height="36" viewBox="0 0 171 36" fill="none" xmlns="http://www.w3.org/2000/svg">
  <path fill-rule="evenodd" clip-rule="evenodd" d="M27.8333 18C27.8333 25.0877 22.0877 30.8333 15 30.8333C7.91234 30.8333 2.16666 25.0877 2.16666 18C2.16666 10.9123 7.91234 5.16666 15 5.16666C22.0877 5.16666 27.8333 10.9123 27.8333 18ZM30 18C30 26.2843 23.2843 33 15 33C6.71573 33 0 26.2843 0 18C0 9.71573 6.71573 3 15 3C23.2843 3 30 9.71573 30 18ZM23.2759 11.2759C23.2759 12.1329 22.5812 12.8276 21.7242 12.8276C20.8672 12.8276 20.1725 12.1329 20.1725 11.2759C20.1725 10.4189 20.8672 9.72418 21.7242 9.72418C22.5812 9.72418 23.2759 10.4189 23.2759 11.2759ZM10.4879 19.209C11.1556 21.7009 13.717 23.1797 16.2089 22.512C18.7008 21.8443 20.1796 19.2829 19.5119 16.791C18.8442 14.2991 16.2828 12.8203 13.7909 13.488C11.299 14.1557 9.82015 16.7171 10.4879 19.209ZM8.39503 19.7698C9.37244 23.4175 13.1219 25.5823 16.7696 24.6049C20.4174 23.6274 22.5821 19.878 21.6047 16.2302C20.6273 12.5825 16.8779 10.4177 13.2301 11.3952C9.58236 12.3726 7.41762 16.122 8.39503 19.7698Z" fill="url(#paint0_linear_120_1360)"/>
  <defs>
    <linearGradient id="paint0_linear_120_1360" x1="15" y1="3" x2="15" y2="33" gradientUnits="userSpaceOnUse">
      <stop stop-color="#877EFF"/>
      <stop offset="0.4615" stop-color="#685DFF"/>
      <stop offset="1" stop-color="#3121FF"/>
    </linearGradient>
    <path id="path-0" style="fill: none;" d="M 41.859 8.139 C 39.378 8.139 38.293 8.139 37.208 8.139 C 37.053 9.112 36.277 9.444 36.277 10.775 C 35.967 11.846 35.657 12.262 35.657 13.565 C 35.247 14.541 35.47 16.201 36.277 16.201 C 36.781 17.015 38.293 17.635 38.293 18.061 C 39.48 18.216 39.731 18.991 41.083 18.991 C 41.447 18.991 43.874 19.766 43.874 19.767 C 44.848 20.077 45.56 20.852 45.889 20.852 C 46.38 20.852 48.06 21.5 48.06 21.782 C 48.751 22.438 48.06 23.837 48.06 24.573 C 47.18 24.883 46.044 25.708 46.044 26.588 C 45.181 26.743 44.922 27.828 43.719 27.828 C 42.651 28.138 41.872 28.603 40.773 28.603 C 39.589 28.758 37.838 29.068 37.518 29.068 L 37.208 29.068 C 36.794 29.068 36.381 29.068 35.967 29.068"/>
    <path id="path-1" style="fill: none;" d="M 56.12148354566961 12.325022090141848 L 99.67524337532679 18.14556951680428"/>
    <path id="path-2" style="fill: none;" d="M 47.284675691897164 8.44922798902247 L 86.49218561028509 18.10030968994476"/>
    <path id="path-3" style="fill: none;" d="M 45.889 7.519 C 44.04 7.829 42.194 8.282 41.549 8.604 C 40.735 8.604 39.5 9.379 38.758 9.379 C 37.901 9.689 37.281 10.93 36.743 10.93 C 35.989 11.229 36.277 13.036 36.277 13.72 C 36.277 14.637 36.451 16.666 36.898 16.666 C 37.371 17.213 37.779 18.681 38.138 18.681 C 38.975 19.736 40.292 19.285 40.928 19.922 C 41.414 20.273 44.064 20.697 44.184 20.697 C 45.785 20.697 46.584 21.007 47.75 21.007 C 49.173 21.162 49.486 21.502 50.23 22.247 C 51.175 22.247 51.316 23.933 51.316 24.728 C 51.316 25.599 51.086 27.208 50.695 27.208 C 50.385 27.679 48.686 28.758 48.37 28.758 C 47.524 28.758 46.036 29.534 45.424 29.534 L 45.114 29.534 C 44.302 29.534 43.583 29.689 42.789 29.689"/>
    <path id="path-4" style="fill: none;" d="M 57.207 8.914 C 57.982 11.876 60.494 15.583 61.238 17.441 C 62.128 21.431 63.449 24.157 64.028 27.053 C 64.462 28.015 65.578 30.855 65.578 30.154 C 66.598 27.527 68.35 23.705 69.764 21.937 C 70.84 20.403 73.05 16.201 73.64 16.201 C 74.105 18.451 75.317 24.143 76.431 25.813 C 77.641 27.115 77.044 28.603 78.601 28.603 C 83.25 24.11 86.451 19.229 89.918 14.185 L 90.849 12.17 C 93.059 9.012 93.329 5.678 93.329 1.938"/>
  </defs>
  <text style="fill: rgb(255, 250, 250); font-family: Arial, sans-serif; font-size: 21.4px; white-space: pre;" x="35.394" y="25.99">Swipe</text>
</svg>